
<svg version="1.0" xmlns="http://www.w3.org/2000/svg"
 width="512.000000pt" height="512.000000pt" viewBox="0 0 512.000000 512.000000"
 preserveAspectRatio="xMidYMid meet">

<g transform="translate(0.000000,512.000000) scale(0.100000,-0.100000)"
fill="#ffffff" stroke="none">
<path d="M1695 5106 c-37 -16 -70 -52 -84 -89 -8 -19 -11 -294 -11 -855 l0
-827 160 -160 160 -160 0 893 0 892 1280 0 1280 0 0 -2240 0 -2240 -1280 0
-1280 0 0 892 0 893 -160 -160 -160 -160 2 -842 c3 -832 3 -842 24 -869 11
-15 33 -37 48 -48 27 -21 28 -21 1526 -21 1498 0 1499 0 1526 21 15 11 37 33
48 48 l21 27 0 2459 0 2459 -21 27 c-11 15 -33 37 -48 48 -27 21 -30 21 -1514
23 -1224 2 -1492 0 -1517 -11z"/>
<path d="M1280 2962 l0 -242 -480 0 -480 0 0 -160 0 -160 480 0 480 0 2 -237
3 -238 317 320 318 320 -320 320 -320 320 0 -243z"/>
<path d="M3935 2706 c-101 -44 -125 -178 -46 -257 65 -65 157 -65 222 0 124
124 -15 327 -176 257z"/>
</g>
</svg>
